# xmcd
#
# Track frame offsets: 
#        150
#        12598
#        29716
#        44046
#        64784
#        87974
#        101504
#        122580
#        137419
#        151014
#
# Disc length: 2226 seconds
#
# Revision: 0
# Processed by: cddbd v1.5.2PL0 Copyright (c) Steve Scherf et al.
# Submitted via: ExactAudioCopy v1.3
#
DISCID=8008b00a
DTITLE=B. J. Thomas - The Best Of B. J. Thomas Live
DYEAR=2005
DGENRE=Country
TTITLE0=Raindrops Keep Falling On My Head
TTITLE1=(Hey Won't You Play) Another Somebody Done Somebody Wrong Song
TTITLE2=Hooked On A Feeling
TTITLE3=I Just Can't Help Believing
TTITLE4=Rock And Roll Lullaby
TTITLE5=Mama
TTITLE6=Don't Worry Baby
TTITLE7=Most Of All
TTITLE8=The Eyes Of A New York Woman
TTITLE9=I'm So Lonesome I Could Cry
EXTD=
EXTT0=
EXTT1=
EXTT2=
EXTT3=
EXTT4=
EXTT5=
EXTT6=
EXTT7=
EXTT8=
EXTT9=
PLAYORDER=
